<?xml version="1.0" standalone="no"?>
<!DOCTYPE svg PUBLIC "-//W3C//DTD SVG 20010904//EN"
 "http://www.w3.org/TR/2001/REC-SVG-20010904/DTD/svg10.dtd">
<svg version="1.0" xmlns="http://www.w3.org/2000/svg"
 width="262.000000pt" height="262.000000pt" viewBox="0 0 262.000000 262.000000"
 preserveAspectRatio="xMidYMid meet">
<metadata>
Created by potrace 1.11, written by Peter Selinger 2001-2013
</metadata>
<g transform="translate(0.000000,262.000000) scale(0.100000,-0.100000)"
fill="#000000" stroke="none">
<path d="M1100 2604 c-249 -44 -478 -154 -653 -312 l-67 -62 -85 0 c-61 0 -85
-4 -86 -12 -1 -7 -2 -56 -3 -108 -1 -94 -2 -96 -58 -210 -104 -211 -138 -370
-133 -610 1 -85 6 -171 10 -190 24 -131 81 -293 145 -415 l37 -70 -1 -298 c-1
-187 2 -301 9 -305 11 -7 2205 -9 2206 -2 1 3 2 144 3 315 l2 310 52 105 c47
97 88 207 98 270 3 14 7 32 10 41 19 65 27 382 12 479 -19 116 -69 263 -130
383 -41 80 -42 84 -44 192 -1 61 -2 113 -3 118 -1 4 -41 7 -89 7 l-89 0 -44
41 c-286 268 -719 399 -1099 333z m388 -37 c4 -3 29 -8 56 -11 113 -16 308
-92 431 -169 56 -35 180 -131 190 -147 4 -7 -279 -10 -857 -10 l-863 1 45 40
c99 89 260 183 396 232 74 27 241 64 309 70 54 4 283 -1 293 -6z m-1184 -424
c-21 -27 -42 -52 -46 -57 -4 -6 -8 16 -8 47 l0 57 46 0 45 0 -37 -47z m593
-189 l1 -235 -28 5 c-38 6 -70 -25 -70 -67 0 -41 20 -71 60 -87 34 -14 33 -10
30 -110 -2 -41 -3 -110 -4 -152 -1 -43 -5 -78 -9 -78 -4 0 -18 6 -30 14 -12 8
-65 37 -117 65 -70 37 -95 55 -93 68 1 10 5 39 8 64 l6 46 -63 8 c-92 12 -91
12 -95 -14 -5 -38 -12 -38 -39 -3 -14 18 -33 32 -42 32 -16 -1 -76 -75 -77
-95 0 -5 -4 -10 -10 -10 -26 -1 -33 -18 -30 -73 4 -62 33 -173 49 -184 5 -4
26 0 45 9 113 49 97 49 199 2 93 -43 107 -54 74 -56 -10 -1 -47 -13 -82 -27
l-64 -26 -61 40 c-34 22 -68 40 -75 40 -8 0 -40 -28 -72 -61 l-58 -62 0 495 0
495 31 44 c18 24 51 67 75 96 l44 51 248 0 247 1 2 -235z m1368 183 c25 -29
61 -75 80 -102 l35 -50 -2 -540 c-3 -486 -4 -535 -17 -495 -30 92 -64 117
-120 86 -21 -12 -36 -9 -130 24 -149 53 -156 56 -145 62 5 3 39 18 76 33 l68
26 65 -34 66 -35 14 24 c8 13 22 36 31 50 9 14 14 35 11 45 -4 14 0 19 14 19
19 0 21 6 21 55 0 52 -2 56 -24 55 -38 -3 -43 -1 -24 13 17 13 16 16 -14 70
-17 31 -38 57 -45 57 -8 0 -26 -11 -41 -25 -33 -30 -41 -31 -49 -5 -7 24 -40
34 -85 26 -41 -6 -50 -19 -50 -78 0 -36 -4 -50 -19 -58 -21 -11 -269 -100
-280 -100 -11 0 -9 125 3 132 6 4 21 8 34 8 22 0 22 3 18 58 -3 31 -6 141 -6
245 -1 172 -3 188 -20 197 -34 18 -38 -15 -34 -242 l4 -218 -25 0 c-36 0 -44
-25 -39 -135 4 -87 8 -102 26 -115 43 -31 254 -122 396 -171 175 -61 180 -63
187 -92 18 -83 6 -116 -20 -53 -12 28 -21 36 -41 36 -36 0 -64 -17 -64 -40 0
-28 -11 -51 -21 -44 -5 3 -9 23 -9 45 l0 39 -87 41 c-155 73 -317 118 -340 96
-12 -12 -5 -681 9 -877 2 -28 21 -40 65 -40 l44 0 -3 -37 -3 -38 -122 -2 -123
-2 -1 92 c-1 51 -3 110 -4 132 -2 22 -3 70 -4 107 -1 65 -2 68 -32 84 -26 13
-59 15 -173 13 -77 -1 -159 -2 -181 -1 -22 0 -45 -4 -51 -9 -11 -9 -16 -102
-17 -326 l0 -93 -114 0 -113 0 0 40 c0 22 5 41 10 41 6 1 15 3 20 4 6 1 21 3
34 4 13 0 27 9 31 19 4 9 8 202 11 429 4 409 4 413 -17 432 -21 19 -22 19
-118 -14 -53 -18 -132 -43 -175 -56 l-79 -23 -24 -53 c-14 -29 -28 -53 -33
-53 -16 0 -20 18 -10 46 9 23 7 31 -11 51 -31 32 -42 29 -82 -18 -30 -37 -36
-40 -56 -30 -22 12 -22 12 -2 39 11 15 37 46 59 70 34 38 43 42 68 36 16 -4
34 -11 40 -15 6 -5 60 7 130 30 229 74 303 111 302 150 0 9 3 93 7 187 4 95 5
183 2 196 -5 17 -19 30 -47 41 -43 16 -60 41 -42 59 9 9 16 7 30 -5 10 -9 28
-17 40 -17 26 0 25 -15 24 292 l-2 228 73 -7 c39 -3 223 -7 407 -7 l335 -1 3
22 c3 22 5 22 227 22 l225 0 45 -52z m115 -9 c0 -34 -4 -58 -8 -52 -34 40 -82
103 -82 108 0 3 20 6 45 6 l45 0 0 -62z m-2175 -813 c0 -464 -2 -592 -12 -579
-12 17 -83 188 -88 214 -2 8 -10 42 -19 76 -30 117 -41 337 -22 464 13 90 20
123 43 194 23 73 87 226 95 226 2 0 3 -268 3 -595z m2298 405 c51 -154 62
-230 61 -425 0 -153 -17 -253 -64 -390 -26 -74 -68 -175 -73 -175 -2 0 -3 264
-3 586 l0 586 27 -54 c15 -29 38 -87 52 -128z m-2043 -324 c24 -30 48 -52 52
-50 4 3 13 25 19 50 9 33 16 44 31 44 17 0 19 -6 17 -62 l-3 -63 111 -55 c60
-31 123 -64 138 -74 l29 -19 -44 -14 c-49 -14 -28 -21 -232 71 -71 32 -85 32
-152 -1 -31 -15 -57 -25 -60 -22 -2 2 -7 16 -11 30 -6 23 -4 26 17 25 13 -1
28 0 33 3 6 3 17 6 25 6 8 0 16 7 18 17 2 12 -7 18 -40 23 -67 10 -78 15 -78
35 0 16 4 17 33 9 94 -29 112 -20 63 30 -25 25 -35 43 -30 54 3 9 9 17 13 17
3 0 26 -25 51 -54z m1628 12 c0 -17 7 -38 15 -46 13 -12 18 -12 43 4 16 10 39
27 52 38 15 13 26 16 32 10 7 -7 -3 -20 -30 -40 -30 -22 -38 -34 -33 -49 3
-11 10 -23 16 -26 9 -7 58 -3 85 6 6 2 12 0 12 -5 0 -6 -4 -11 -10 -11 -5 -1
-19 -3 -30 -4 -11 -1 -26 -3 -32 -4 -7 -1 -19 -5 -27 -10 -21 -13 4 -51 34
-51 15 0 25 -6 25 -14 0 -28 -21 -27 -74 3 -29 17 -60 31 -67 31 -8 0 -60 -21
-116 -46 l-103 -47 -67 31 -67 31 30 11 c16 6 80 29 143 50 63 21 118 45 122
52 5 7 9 30 10 51 1 20 3 42 4 47 1 6 3 12 4 15 0 3 7 5 14 5 9 0 14 -12 15
-32z m-1734 -390 c-69 -75 -88 -80 -37 -10 48 66 66 83 77 72 6 -6 -8 -28 -40
-62z m1503 -66 c150 -57 178 -73 178 -107 0 -16 4 -35 8 -42 9 -14 96 -45 108
-38 4 3 11 26 15 51 7 46 24 44 24 -3 0 -35 28 -43 79 -23 25 9 45 24 47 34 2
16 42 55 57 56 4 0 7 -52 7 -116 l0 -117 -56 -77 c-57 -80 -175 -200 -254
-260 l-45 -34 35 40 c19 21 41 42 48 47 26 17 12 54 -38 101 -55 52 -69 51
-115 -2 l-22 -26 -68 58 c-37 31 -79 65 -94 74 -65 42 -64 38 -63 233 0 98 3
183 6 188 7 11 27 6 143 -37z m449 3 c16 -40 17 -45 6 -45 -7 0 -32 57 -32 73
0 17 12 4 26 -28z m-1415 -12 c1 -22 -2 -163 -5 -216 -3 -40 -4 -41 -141 -182
l-71 -72 -42 20 -42 21 -26 -25 c-15 -13 -40 -42 -56 -63 l-29 -40 48 -44 c27
-25 38 -40 27 -34 -36 19 -198 183 -252 256 l-52 69 0 149 c0 104 3 147 11
142 6 -3 8 -17 5 -30 -5 -19 1 -32 27 -59 19 -19 39 -35 45 -35 6 0 28 16 49
35 21 19 41 35 46 35 4 0 5 -17 1 -38 -6 -36 -5 -38 41 -60 25 -12 51 -19 57
-16 6 4 21 30 34 59 25 58 14 52 199 112 110 36 125 38 126 16z m-7 -429 c-2
-74 -3 -77 -42 -118 -22 -22 -59 -62 -82 -88 l-42 -47 -52 44 c-28 24 -63 54
-78 67 -27 23 -28 23 -9 47 l18 24 39 -27 39 -26 100 104 c55 57 103 103 106
101 3 -2 5 -38 3 -81z m1496 -209 l0 -255 -274 0 -275 0 1 30 c1 36 3 38 93
85 89 48 145 85 220 149 71 60 169 163 202 212 13 19 26 34 28 34 3 0 5 -115
5 -255z m-1971 75 c100 -98 189 -163 311 -227 65 -34 70 -39 70 -70 l0 -33
-270 0 -270 0 0 252 0 253 31 -40 c18 -22 75 -83 128 -135z m1407 84 c44 -36
92 -72 109 -81 29 -15 30 -15 61 21 31 36 31 36 49 16 18 -20 18 -21 -17 -58
-19 -20 -49 -53 -66 -72 l-31 -34 -25 19 c-13 11 -57 46 -98 77 l-73 57 -3 66
c-1 38 2 64 7 61 5 -3 44 -35 87 -72z m-356 -46 c1 -7 3 -90 7 -184 5 -151 4
-172 -11 -177 -21 -8 -308 -4 -321 5 -15 9 -10 348 5 358 6 4 80 8 165 9 119
1 155 -2 155 -11z m-575 -154 c0 -65 -3 -77 -17 -80 -10 -1 -34 -5 -55 -9 -25
-4 -44 -1 -55 7 -16 12 -11 20 47 83 36 39 65 74 65 78 0 5 4 6 8 3 4 -2 7
-39 7 -82z m919 17 c23 -21 54 -47 69 -59 l28 -21 -29 -15 c-23 -12 -44 -14
-89 -8 l-58 7 -3 78 c-3 78 -3 78 19 66 12 -6 40 -28 63 -48z"/>
<path d="M1497 2094 c-1 -1 -52 -5 -113 -8 -61 -4 -124 -9 -140 -11 -16 -3
-43 -7 -61 -10 -31 -5 -49 -28 -37 -46 3 -6 33 -8 72 -4 107 10 207 15 361 19
104 2 145 7 151 16 10 16 2 40 -14 41 -24 2 -217 5 -219 3z"/>
<path d="M1645 1982 c-3 -3 -100 -6 -217 -8 -187 -3 -214 -5 -225 -20 -26 -35
-2 -39 204 -37 245 3 314 6 331 16 18 12 15 47 -5 48 -10 0 -33 2 -51 3 -18 1
-34 0 -37 -2z"/>
<path d="M1563 1808 c-13 -17 -9 -166 5 -180 6 -6 18 -8 27 -5 12 5 15 21 14
84 -3 99 -19 136 -46 101z"/>
</g>
</svg>
