<svg id="Calque_1" data-name="Calque 1" xmlns="http://www.w3.org/2000/svg" width="49.99mm" height="49.99mm" viewBox="0 0 141.7 141.7">
  <defs>
    <style>
      .cls-1 {
        fill: #2c599e;
      }
    </style>
  </defs>
  <title>clara</title>
  <g>
    <path class="cls-1" d="M102.6,89.4a8.34,8.34,0,0,0-2.1,1.6,18.81,18.81,0,0,1-6.3,4,4.81,4.81,0,0,1-3.9-.2,8.59,8.59,0,0,1-4.6-5.1,11.61,11.61,0,0,1,1.7-11.5,22.52,22.52,0,0,1,4.1-4.6,10.5,10.5,0,0,1,7.7-2l2.3.3a28.4,28.4,0,0,0,0-9.2,3.51,3.51,0,0,0-2,.5c-1,.3-2,.7-3,1a7.72,7.72,0,0,1-1.5.2c-2.3.2-3.4-1.8-3.5-3.5A1.19,1.19,0,0,1,92,60a3.29,3.29,0,0,1,1.3-.7c2-.8,4-1.6,6-2.3a17.73,17.73,0,0,1,4-.8,2.86,2.86,0,0,1,2.7,1.5,7,7,0,0,1,1.3,3.2c.2,2.3.5,4.5.7,6.8.3,4.2,1,8.3,1.7,12.5a46.07,46.07,0,0,0,1.6,6.4c.1.2.3.4.4.6a5,5,0,0,0,.8-.7,86.08,86.08,0,0,0,4.9-8.3c.8-1.7,1.7-3.3,3.5-4.1a3.92,3.92,0,0,0,1-.8l.6-.6a1.63,1.63,0,0,1,2.4,0,1.93,1.93,0,0,1,.5.9,3.59,3.59,0,0,1-.1,2.7,49.67,49.67,0,0,1-2.5,5.2c-1.4,2.5-3,4.8-4.6,7.2-1.3,2-2.7,4-4,6a9.22,9.22,0,0,1-3.5,3,3.12,3.12,0,0,1-3.1-.1,8.09,8.09,0,0,1-3.8-4.7c-.2-.8-.4-1.7-.6-2.5A1.52,1.52,0,0,1,102.6,89.4ZM101.8,77c-.6-.9-1.8-.4-2.7-.1-3.9,1.4-4.7,3.4-5.5,5.8a6.15,6.15,0,0,0,0,2.7c.2.7.5,1,1.1,1A5,5,0,0,0,98,85.2c.6-.5,1.1-.9,1.6-1.4a4.62,4.62,0,0,0,.7-.7,12.67,12.67,0,0,1,1.1-1.3,3.49,3.49,0,0,0,.8-2.2A4.49,4.49,0,0,0,101.8,77Z"/>
    <path class="cls-1" d="M42.3,79.1c1,.3.9,1.5.9,2.2a10.39,10.39,0,0,1-.7,3.5,41.64,41.64,0,0,1-4.4,7.3,12.29,12.29,0,0,1-5.5,4,8.06,8.06,0,0,1-6.1-.1C21,93.6,18,89.3,17,83.5a45.74,45.74,0,0,1-.4-8.3,32.09,32.09,0,0,1,.7-5.3,62.23,62.23,0,0,1,5.2-15.6A34.27,34.27,0,0,1,28,46.7a11,11,0,0,1,5.5-3.2,9.73,9.73,0,0,1,3.8-.1,5.31,5.31,0,0,1,3.1,2.4,1.61,1.61,0,0,1,.3,1.6,3.91,3.91,0,0,1-1,1.6A22.18,22.18,0,0,0,36,52.8c-.2.2-.3.5-.5.7a28.84,28.84,0,0,0-5.8,11.1,39.56,39.56,0,0,1-1.5,4.5,26.07,26.07,0,0,0-1.3,7.3,55.64,55.64,0,0,0-.1,5.8,52.49,52.49,0,0,0,.9,5.5,7.84,7.84,0,0,0,.5,1.4,1.62,1.62,0,0,0,1.7,1,4.84,4.84,0,0,0,3.9-1.8,49.61,49.61,0,0,0,4.7-6.6C39.4,80.2,41,78.7,42.3,79.1Z"/>
    <path class="cls-1" d="M73.2,48.1a2.52,2.52,0,0,1,2-.6,3.53,3.53,0,0,1,2.6.8l.9.9a18.49,18.49,0,0,1,3.7,6.9c.1.2.1.4.2.6a1.24,1.24,0,0,0,.3.2c.2-.2.5-.4.7-.6a20.68,20.68,0,0,1,7.7-5.7,7.84,7.84,0,0,1,1.4-.5,4.62,4.62,0,0,1,5,1.6,1.63,1.63,0,0,1,0,2.4c-.1.1-.2.1-.3.2a5.56,5.56,0,0,1-1.7.9,14.05,14.05,0,0,0-6.3,3.5c-.5.6-1,1.2-1.5,1.9-.8,1.1-1.7,2.3-2.5,3.5A8.64,8.64,0,0,0,83.6,69c0,2.8-.1,5.6-.2,8.3a44.29,44.29,0,0,1-.9,7.2,1.93,1.93,0,0,1-.3,1,2.21,2.21,0,0,1-2.9,1.2,2.19,2.19,0,0,1-.5-.3,7.2,7.2,0,0,1-3-5.2c-.2-3.3-.2-6.6-.3-9.8-.1-2.1-.1-4.1-.2-6.2L75,57.7a10.59,10.59,0,0,0-.9-4.2c-.4-.9-.9-1.8-1.3-2.7C72.9,50.1,72.5,48.7,73.2,48.1Z"/>
    <path class="cls-1" d="M44.7,40.8a2.34,2.34,0,0,1,1-1.2,3.76,3.76,0,0,1,6.1,1.6,8,8,0,0,1,.6,3c.1,2.7,0,5.5,0,8.2,0,2.4-.1,4.8-.1,7.2,0,3,.2,6,.3,9a5.83,5.83,0,0,0,.6,2.6,3.11,3.11,0,0,0,2,.2,1.48,1.48,0,0,1,1.7,1.2,7,7,0,0,1-.4,5.5,16.44,16.44,0,0,1-1.4,2.2,5,5,0,0,1-6.9,1.2,7.56,7.56,0,0,1-2.1-1.9c-2.5-3.4-4.1-7.1-3.9-11.5.3-5.7.5-11.3,1.3-16.9a53.21,53.21,0,0,0,.6-5.6A34.18,34.18,0,0,1,44.7,40.8Z"/>
    <path class="cls-1" d="M77.7,89.4a1.08,1.08,0,0,0-1.4-.7c-.1,0-.2.1-.4.2a6.06,6.06,0,0,0-1.9,2c-.2.3-.6.4-1,.7-.1-3.3-.4-6.4-.2-9.4a43.41,43.41,0,0,0,.1-5.1c-.1-3.1-.2-6.3-.4-9.4a20.22,20.22,0,0,0-1.7-6.4,3.73,3.73,0,0,0-3.5-2.2H66.1a9.12,9.12,0,0,0-6.1.3c-1.2.4-2.3.9-3.5,1.3-.3.1-.7.2-.8.6a3,3,0,0,0,.5,1.6c.8,1.2,1.8,2.2,3.8,1.7a6.11,6.11,0,0,1,1.3-.3,6.54,6.54,0,0,1,3.1.2l-1.2,19A17.73,17.73,0,0,1,60,83a9.51,9.51,0,0,0-6,.5c-4,1.7-7.9,5.5-7.4,11.3a7.33,7.33,0,0,0,2.6,5.3,15,15,0,0,0,4,2.5,5.73,5.73,0,0,0,3.4.8,10,10,0,0,0,6-3.1,17.38,17.38,0,0,1,1.3-1.5c.3-.2.5-.5.8-.7.7.4.8,1.2,1.1,1.7a5.22,5.22,0,0,0,5.1,2.6,4.48,4.48,0,0,1,1.1-.1,1.87,1.87,0,0,0,1.4-.5,9.88,9.88,0,0,0,3.2-4.6,4.71,4.71,0,0,1,.6-1.5,12,12,0,0,0,.8-4.2A3.35,3.35,0,0,0,77.7,89.4ZM62.3,90.9c-.6,1-1.2,2-1.9,3a4,4,0,0,1-2.8,1.9,1.43,1.43,0,0,1-1.7-.7,5.12,5.12,0,0,1-.8-3.2,15.52,15.52,0,0,1,.4-2.1A3.32,3.32,0,0,1,57,88.2c2.2-1.3,4.7-.1,5.9.7A4.66,4.66,0,0,1,62.3,90.9Z"/>
  </g>
</svg>
