<svg id="Calque_1" data-name="Calque 1" xmlns="http://www.w3.org/2000/svg" width="49.99mm" height="49.99mm" viewBox="0 0 141.7 141.7">
  <defs>
    <style>
      .cls-1 {
        fill: #2c599a;
      }
    </style>
  </defs>
  <title>facebook</title>
  <path class="cls-1" d="M70.9,14.2H121a6.08,6.08,0,0,1,6.5,5.7V121.1a6.49,6.49,0,0,1-6.4,6.6h-.2c-9.1-.1-18.2,0-27.3,0-1.1,0-1.1,0-1.1-1.1V85.1c0-1.1,0-1.1,1.2-1.1h12.6c.7,0,1-.1,1.1-.9.6-5.2,1.3-10.4,2-15.5.1-.8-.1-1-.9-1H93.6c-.8,0-1.1-.2-1.1-1.1.1-3.8,0-7.7.1-11.5.1-3.5,1.9-5.6,5.4-6.2a18.41,18.41,0,0,1,3.3-.3h7.9c.8,0,1-.3,1-1V32.9c0-.7-.2-1.1-1-1.1-4.7-.2-9.3-.5-14-.5a21,21,0,0,0-12.3,4,19.21,19.21,0,0,0-7.7,12.8,39.15,39.15,0,0,0-.5,5.9c-.1,3.8,0,7.6,0,11.5,0,.8-.2,1.1-1,1.1H61c-1.1,0-1.1,0-1.1,1.1V83c0,.8.3,1.1,1.1,1.1H73.8c.8,0,1,.2,1,1v41.8c0,.8-.2,1-1,1H20.5a6,6,0,0,1-6.1-5.9V20.7a6,6,0,0,1,6-6.1h.2Z"/>
</svg>
