<svg id="Calque_1" data-name="Calque 1" xmlns="http://www.w3.org/2000/svg" width="49.99mm" height="49.99mm" viewBox="0 0 141.7 141.7">
  <defs>
    <style>
      .cls-1 {
        fill: #2c599a;
      }
    </style>
  </defs>
  <title>instagram</title>
  <g>
    <path class="cls-1" d="M70.9,14.2c7.6.1,15.2.2,22.8.4,6.6.2,12.9,1.3,18.6,4.8a28,28,0,0,1,13.7,20,104.16,104.16,0,0,1,1.3,15.8c.2,11.2.1,22.4,0,33.6-.1,5.9-.3,11.8-2.2,17.5-3.8,11-11.5,17.7-22.8,19.9a91.56,91.56,0,0,1-15.7,1.3c-11.3.2-22.5.1-33.8,0-5.9-.1-11.8-.3-17.5-2.2-11-3.8-17.4-11.5-19.9-22.7a76,76,0,0,1-1.2-15.8q-.15-16.8,0-33.6c.1-5.9.3-11.8,2.2-17.5,3.8-11,11.5-17.7,22.8-19.9a117.22,117.22,0,0,1,15.6-1.3c5.3-.2,10.6,0,15.9,0ZM117.5,70h-.2c0-4.5.1-8.9,0-13.4-.1-4.3-.3-8.6-.7-12.9-1-9.6-6.7-16.2-16.1-18a88.68,88.68,0,0,0-15.4-1.1c-9.4-.2-18.9-.2-28.3,0a102.35,102.35,0,0,0-14.6,1c-8.2,1.3-13.8,6-16,14.1A36,36,0,0,0,25,47.8c-.2,10.3-.4,20.5-.4,30.8,0,6.5.2,13.1.7,19.6.8,9.6,6.6,16.2,16,18a100.19,100.19,0,0,0,15.5,1.2c9.4.2,18.8.1,28.2,0,4.4,0,8.8-.3,13.1-.7a20.62,20.62,0,0,0,11.1-4.3c5.3-4.2,7.3-10,7.6-16.3C117.2,87.3,117.2,78.6,117.5,70Z"/>
    <path class="cls-1" d="M70.8,100a29.1,29.1,0,0,1,.4-58.2c16,0,28.8,13.1,28.8,29.4A29.09,29.09,0,0,1,70.8,100ZM89.7,71A18.85,18.85,0,1,0,70.8,89.8h0A19.06,19.06,0,0,0,89.7,71Z"/>
    <path class="cls-1" d="M107.9,40.7a6.81,6.81,0,0,1-6.8,6.8,7,7,0,0,1-6.9-6.8,6.81,6.81,0,0,1,6.8-6.8h0a6.7,6.7,0,0,1,6.8,6.6C107.9,40.6,107.9,40.6,107.9,40.7Z"/>
  </g>
</svg>
