<svg id="Calque_1" data-name="Calque 1" xmlns="http://www.w3.org/2000/svg" width="49.99mm" height="49.99mm" viewBox="0 0 141.7 141.7">
  <defs>
    <style>
      .cls-1 {
        fill: #2c599a;
      }
    </style>
  </defs>
  <title>linkin</title>
  <path class="cls-1" d="M14.1,120.7V21.5c1.1-2.8,2.4-5.5,5.6-6.5a8.86,8.86,0,0,0,1.7-.8h99.2a11.84,11.84,0,0,1,7,5.8V121.9a3.51,3.51,0,0,0-.5.8,8.59,8.59,0,0,1-8.3,4.9c-32.1-.1-64.1-.1-96.2,0a7.87,7.87,0,0,1-7.7-5.3A8,8,0,0,0,14.1,120.7ZM74.9,63.2c0-1.9-.1-3.4,0-4.9s-.5-1.9-1.9-1.9q-6.45.15-12.9,0c-1.5,0-2.1.5-2,2,.1,3,0,5.9,0,8.9v41.5c0,1.8.4,2.5,2.4,2.5q6.45-.15,12.9,0c1.8,0,2.3-.5,2.3-2.3-.1-8.6-.2-17.2,0-25.9a24.76,24.76,0,0,1,1.6-8c1.4-3.5,4.9-4.9,9.6-4.5,3.3.3,5.5,2.3,6.3,6.1a28.8,28.8,0,0,1,.6,5.9q.15,13.2,0,26.4c0,1.7.5,2.3,2.2,2.2q6.45-.15,12.9,0c1.9.1,2.6-.5,2.5-2.5-.1-8.5,0-17-.1-25.5a93.88,93.88,0,0,0-.8-11.9c-1-7.2-4.2-13.1-11.8-15.2C89.8,53.7,81.5,54.9,74.9,63.2ZM48.2,84V58.5c0-1.5-.5-2-2-2q-6.75.15-13.5,0c-1.6,0-2.1.5-2.1,2.1v50.8c0,1.5.5,2,2,2,4.4-.1,8.9-.1,13.3,0,1.8,0,2.3-.5,2.3-2.3C48.2,100.7,48.2,92.3,48.2,84ZM29.4,39.7a10.1,10.1,0,1,0,10-10.2h0A10.07,10.07,0,0,0,29.4,39.7Z"/>
</svg>
