<?xml version="1.0" encoding="utf-8"?>
<!-- Generator: Adobe Illustrator 21.0.2, SVG Export Plug-In . SVG Version: 6.00 Build 0)  -->
<svg version="1.1" id="Calque_1" xmlns="http://www.w3.org/2000/svg" xmlns:xlink="http://www.w3.org/1999/xlink" x="0px" y="0px"
	 viewBox="0 0 141.7 141.7" style="enable-background:new 0 0 141.7 141.7;" xml:space="preserve">
<style type="text/css">
	.st0{fill:#2C599E;}
</style>
<title>logos</title>
<g>
	<path class="st0" d="M102.6,89.4c-0.8,0.4-1.5,1-2.1,1.6c-1.8,1.7-3.9,3.1-6.3,4c-1.3,0.5-2.7,0.4-3.9-0.2c-2.2-1-3.8-2.8-4.6-5.1
		c-1.5-3.9-0.9-8.3,1.7-11.5c1.2-1.7,2.5-3.3,4.1-4.6c2.2-1.6,4.9-2.4,7.7-2c0.8,0.1,1.5,0.2,2.3,0.3c0.5-3.1,0.5-6.2,0-9.2
		c-0.7,0-1.4,0.1-2,0.5c-1,0.3-2,0.7-3,1c-0.5,0.1-1,0.2-1.5,0.2c-2.3,0.2-3.4-1.8-3.5-3.5c0-0.3,0.2-0.7,0.5-0.9
		c0.4-0.3,0.8-0.6,1.3-0.7c2-0.8,4-1.6,6-2.3c1.3-0.4,2.6-0.7,4-0.8c1.1-0.1,2.1,0.5,2.7,1.5c0.7,0.9,1.1,2,1.3,3.2
		c0.2,2.3,0.5,4.5,0.7,6.8c0.3,4.2,1,8.3,1.7,12.5c0.4,2.2,0.9,4.3,1.6,6.4c0.1,0.2,0.3,0.4,0.4,0.6c0.3-0.2,0.5-0.4,0.8-0.7
		c1.8-2.7,3.4-5.4,4.9-8.3c0.8-1.7,1.7-3.3,3.5-4.1c0.4-0.2,0.7-0.5,1-0.8c0.2-0.2,0.4-0.4,0.6-0.6c0.7-0.7,1.8-0.7,2.4,0
		c0.2,0.2,0.4,0.5,0.5,0.9c0.3,0.9,0.3,1.9-0.1,2.7c-0.7,1.8-1.6,3.5-2.5,5.2c-1.4,2.5-3,4.8-4.6,7.2c-1.3,2-2.7,4-4,6
		c-0.9,1.3-2.1,2.3-3.5,3c-1,0.5-2.1,0.5-3.1-0.1c-1.8-1-3.2-2.7-3.8-4.7c-0.2-0.8-0.4-1.7-0.6-2.5
		C102.8,90.1,102.7,89.8,102.6,89.4z M101.8,77c-0.6-0.9-1.8-0.4-2.7-0.1c-3.9,1.4-4.7,3.4-5.5,5.8c-0.2,0.9-0.2,1.8,0,2.7
		c0.2,0.7,0.5,1,1.1,1c1.2,0,2.4-0.4,3.3-1.2c0.6-0.5,1.1-0.9,1.6-1.4c0.3-0.2,0.5-0.5,0.7-0.7c0.3-0.5,0.7-0.8,1.1-1.3
		c0.5-0.6,0.8-1.4,0.8-2.2C102.3,78.6,102.2,77.8,101.8,77z"/>
	<path class="st0" d="M42.3,79.1c1,0.3,0.9,1.5,0.9,2.2c0,1.2-0.3,2.4-0.7,3.5c-1.2,2.6-2.7,5-4.4,7.3c-1.4,1.8-3.3,3.2-5.5,4
		c-2,0.8-4.1,0.7-6.1-0.1c-5.5-2.4-8.5-6.7-9.5-12.5c-0.4-2.7-0.5-5.5-0.4-8.3c0.1-1.8,0.3-3.5,0.7-5.3c1-5.4,2.8-10.6,5.2-15.6
		c1.5-2.8,3.3-5.3,5.5-7.6c1.5-1.6,3.4-2.7,5.5-3.2c1.2-0.3,2.6-0.3,3.8-0.1c1.3,0.4,2.4,1.2,3.1,2.4c0.4,0.5,0.5,1.1,0.3,1.6
		c-0.2,0.6-0.5,1.1-1,1.6c-1.4,1.1-2.6,2.4-3.7,3.8c-0.2,0.2-0.3,0.5-0.5,0.7c-2.7,3.2-4.7,7-5.8,11.1c-0.4,1.5-0.9,3-1.5,4.5
		c-0.8,2.4-1.2,4.8-1.3,7.3c-0.1,1.9-0.2,3.8-0.1,5.8c0.2,1.8,0.5,3.7,0.9,5.5c0.1,0.5,0.3,0.9,0.5,1.4c0.3,0.7,1,1.1,1.7,1
		c1.5,0,3-0.6,3.9-1.8c1.8-2.1,3.3-4.3,4.7-6.6C39.4,80.2,41,78.7,42.3,79.1z"/>
	<path class="st0" d="M73.2,48.1c0.6-0.5,1.3-0.7,2-0.6c0.9-0.1,1.9,0.2,2.6,0.8c0.3,0.3,0.6,0.6,0.9,0.9c1.7,2,3,4.4,3.7,6.9
		c0.1,0.2,0.1,0.4,0.2,0.6c0,0,0.1,0.1,0.3,0.2c0.2-0.2,0.5-0.4,0.7-0.6c2.1-2.5,4.7-4.4,7.7-5.7c0.5-0.2,0.9-0.4,1.4-0.5
		c1.8-0.6,3.8,0.1,5,1.6c0.7,0.7,0.7,1.7,0,2.4c-0.1,0.1-0.2,0.1-0.3,0.2c-0.5,0.4-1.1,0.7-1.7,0.9c-2.4,0.6-4.5,1.8-6.3,3.5
		c-0.5,0.6-1,1.2-1.5,1.9c-0.8,1.1-1.7,2.3-2.5,3.5c-1.1,1.4-1.7,3.1-1.8,4.9c0,2.8-0.1,5.6-0.2,8.3c-0.1,2.4-0.4,4.8-0.9,7.2
		c0,0.3-0.1,0.7-0.3,1c-0.5,1.1-1.7,1.7-2.9,1.2c-0.2-0.1-0.4-0.2-0.5-0.3c-1.7-1.2-2.8-3.1-3-5.2c-0.2-3.3-0.2-6.6-0.3-9.8
		c-0.1-2.1-0.1-4.1-0.2-6.2c-0.1-2.5-0.2-5-0.3-7.5c0-1.4-0.3-2.8-0.9-4.2c-0.4-0.9-0.9-1.8-1.3-2.7C72.9,50.1,72.5,48.7,73.2,48.1z
		"/>
	<path class="st0" d="M44.7,40.8c0.1-0.5,0.6-0.9,1-1.2c2.3-1.8,5-1,6.1,1.6c0.4,1,0.6,2,0.6,3c0.1,2.7,0,5.5,0,8.2
		c0,2.4-0.1,4.8-0.1,7.2c0,3,0.2,6,0.3,9c0,0.9,0.2,1.8,0.6,2.6c0.3,0.3,1.3,0.3,2,0.2c0.8-0.1,1.6,0.4,1.7,1.2
		c0.6,1.8,0.5,3.8-0.4,5.5c-0.4,0.8-0.9,1.5-1.4,2.2c-1.6,2.2-4.6,2.7-6.9,1.2c-0.8-0.5-1.5-1.1-2.1-1.9c-2.5-3.4-4.1-7.1-3.9-11.5
		c0.3-5.7,0.5-11.3,1.3-16.9c0.3-1.9,0.5-3.7,0.6-5.6C44.2,44,44.5,41.4,44.7,40.8z"/>
	<path class="st0" d="M77.7,89.4c-0.2-0.6-0.8-0.9-1.4-0.7c-0.1,0-0.2,0.1-0.4,0.2c-0.8,0.5-1.4,1.2-1.9,2c-0.2,0.3-0.6,0.4-1,0.7
		c-0.1-3.3-0.4-6.4-0.2-9.4c0.1-1.7,0.2-3.4,0.1-5.1c-0.1-3.1-0.2-6.3-0.4-9.4c-0.2-2.2-0.8-4.4-1.7-6.4c-0.6-1.4-2-2.2-3.5-2.2
		c-0.4,0-0.8,0-1.2,0c-2-0.6-4.2-0.5-6.1,0.3c-1.2,0.4-2.3,0.9-3.5,1.3c-0.3,0.1-0.7,0.2-0.8,0.6c0,0.6,0.2,1.1,0.5,1.6
		c0.8,1.2,1.8,2.2,3.8,1.7c0.4-0.1,0.9-0.3,1.3-0.3c1-0.2,2.1-0.1,3.1,0.2l-1.2,19c-1.1-0.1-2.1-0.2-3.2-0.5c-2-0.5-4.1-0.3-6,0.5
		c-4,1.7-7.9,5.5-7.4,11.3c0.1,2,1,4,2.6,5.3c1.2,1,2.5,1.9,4,2.5c1,0.6,2.2,0.9,3.4,0.8c2.3-0.3,4.4-1.4,6-3.1
		c0.4-0.5,0.8-1,1.3-1.5c0.3-0.2,0.5-0.5,0.8-0.7c0.7,0.4,0.8,1.2,1.1,1.7c1,1.8,3,2.8,5.1,2.6c0.4-0.1,0.8-0.1,1.1-0.1
		c0.5,0,1-0.1,1.4-0.5c1.5-1.2,2.6-2.8,3.2-4.6c0.1-0.5,0.3-1,0.6-1.5c0.5-1.3,0.8-2.8,0.8-4.2C78.1,90.6,78,89.9,77.7,89.4z
		 M62.3,90.9c-0.6,1-1.2,2-1.9,3c-0.6,1-1.6,1.7-2.8,1.9c-0.7,0.2-1.4-0.1-1.7-0.7c-0.6-0.9-0.9-2.1-0.8-3.2
		c0.1-0.7,0.2-1.4,0.4-2.1c0.3-0.7,0.8-1.2,1.5-1.6c2.2-1.3,4.7-0.1,5.9,0.7C62.9,89.6,62.6,90.3,62.3,90.9z"/>
</g>
</svg>
