<?xml version="1.0" encoding="utf-8"?>
<!-- Generator: Adobe Illustrator 21.0.2, SVG Export Plug-In . SVG Version: 6.00 Build 0)  -->
<svg version="1.1" id="Calque_1" xmlns="http://www.w3.org/2000/svg" xmlns:xlink="http://www.w3.org/1999/xlink" x="0px" y="0px"
	 viewBox="0 0 141.7 141.7" style="enable-background:new 0 0 141.7 141.7;" xml:space="preserve">
<style type="text/css">
	.st0{fill:#2C599A;}
</style>
<title>logos</title>
<path class="st0" d="M14.1,120.7V21.5c1.1-2.8,2.4-5.5,5.6-6.5c0.6-0.2,1.2-0.5,1.7-0.8h99.2c3,0.9,5.5,3,7,5.8v101.9
	c-0.2,0.3-0.4,0.5-0.5,0.8c-1.5,3.2-4.8,5.1-8.3,4.9c-32.1-0.1-64.1-0.1-96.2,0c-3.4,0.1-6.6-2-7.7-5.3
	C14.7,121.7,14.4,121.2,14.1,120.7z M74.9,63.2c0-1.9-0.1-3.4,0-4.9c0.1-1.5-0.5-1.9-1.9-1.9c-4.3,0.1-8.6,0.1-12.9,0
	c-1.5,0-2.1,0.5-2,2c0.1,3,0,5.9,0,8.9c0,13.8,0,27.7,0,41.5c0,1.8,0.4,2.5,2.4,2.5c4.3-0.1,8.6-0.1,12.9,0c1.8,0,2.3-0.5,2.3-2.3
	c-0.1-8.6-0.2-17.2,0-25.9c0.1-2.7,0.6-5.4,1.6-8c1.4-3.5,4.9-4.9,9.6-4.5c3.3,0.3,5.5,2.3,6.3,6.1c0.4,1.9,0.6,3.9,0.6,5.9
	c0.1,8.8,0.1,17.6,0,26.4c0,1.7,0.5,2.3,2.2,2.2c4.3-0.1,8.6-0.1,12.9,0c1.9,0.1,2.6-0.5,2.5-2.5c-0.1-8.5,0-17-0.1-25.5
	c0-4-0.3-8-0.8-11.9c-1-7.2-4.2-13.1-11.8-15.2C89.8,53.7,81.5,54.9,74.9,63.2z M48.2,84c0-8.5,0-17,0-25.5c0-1.5-0.5-2-2-2
	c-4.5,0.1-9,0.1-13.5,0c-1.6,0-2.1,0.5-2.1,2.1c0,16.9,0,33.8,0,50.8c0,1.5,0.5,2,2,2c4.4-0.1,8.9-0.1,13.3,0c1.8,0,2.3-0.5,2.3-2.3
	C48.2,100.7,48.2,92.3,48.2,84z M29.4,39.7c0.1,5.6,4.6,10,10.2,10c5.6-0.1,10-4.6,10-10.2c-0.1-5.6-4.6-10-10.2-10c0,0,0,0,0,0
	C33.8,29.6,29.3,34.1,29.4,39.7z"/>
</svg>
