<?xml version="1.0" encoding="utf-8"?>
<!-- Generator: Adobe Illustrator 21.0.2, SVG Export Plug-In . SVG Version: 6.00 Build 0)  -->
<svg version="1.1" id="Calque_1" xmlns="http://www.w3.org/2000/svg" xmlns:xlink="http://www.w3.org/1999/xlink" x="0px" y="0px"
	 viewBox="0 0 141.7 141.7" style="enable-background:new 0 0 141.7 141.7;" xml:space="preserve">
<style type="text/css">
	.st0{fill:#2C599A;}
</style>
<title>logos</title>
<g>
	<path class="st0" d="M70.9,14.2c7.6,0.1,15.2,0.2,22.8,0.4c6.6,0.2,12.9,1.3,18.6,4.8c7.4,4.3,12.4,11.6,13.7,20
		c0.8,5.2,1.3,10.5,1.3,15.8c0.2,11.2,0.1,22.4,0,33.6c-0.1,5.9-0.3,11.8-2.2,17.5c-3.8,11-11.5,17.7-22.8,19.9
		c-5.2,0.9-10.4,1.3-15.7,1.3c-11.3,0.2-22.5,0.1-33.8,0c-5.9-0.1-11.8-0.3-17.5-2.2c-11-3.8-17.4-11.5-19.9-22.7
		c-1.1-5.2-1.2-10.5-1.2-15.8c-0.1-11.2-0.1-22.4,0-33.6c0.1-5.9,0.3-11.8,2.2-17.5c3.8-11,11.5-17.7,22.8-19.9
		c5.2-0.8,10.4-1.2,15.6-1.3c5.3-0.2,10.6,0,15.9,0L70.9,14.2z M117.5,70h-0.2c0-4.5,0.1-8.9,0-13.4c-0.1-4.3-0.3-8.6-0.7-12.9
		c-1-9.6-6.7-16.2-16.1-18c-5.1-0.8-10.3-1.2-15.4-1.1c-9.4-0.2-18.9-0.2-28.3,0c-4.9,0-9.7,0.3-14.6,1c-8.2,1.3-13.8,6-16,14.1
		c-0.7,2.6-1.1,5.3-1.2,8.1c-0.2,10.3-0.4,20.5-0.4,30.8c0,6.5,0.2,13.1,0.7,19.6c0.8,9.6,6.6,16.2,16,18c5.1,0.8,10.3,1.2,15.5,1.2
		c9.4,0.2,18.8,0.1,28.2,0c4.4,0,8.8-0.3,13.1-0.7c4-0.3,7.9-1.8,11.1-4.3c5.3-4.2,7.3-10,7.6-16.3C117.2,87.3,117.2,78.6,117.5,70z
		"/>
	<path class="st0" d="M70.8,100c-16.1-0.1-29-13.2-28.9-29.3c0.1-16.1,13.2-29,29.3-28.9c16,0,28.8,13.1,28.8,29.4
		C99.8,87.2,86.8,100.1,70.8,100z M89.7,71c0-10.4-8.4-18.9-18.8-18.9C60.5,52,52,60.5,52,70.9c0,10.4,8.4,18.9,18.8,18.9
		c0,0,0,0,0,0C81.2,89.7,89.6,81.3,89.7,71z"/>
	<path class="st0" d="M107.9,40.7c0,3.7-3,6.8-6.8,6.8c-3.8,0-6.8-3.1-6.9-6.8c0-3.8,3.1-6.8,6.8-6.8c0,0,0,0,0,0
		c3.7-0.1,6.7,2.9,6.8,6.6C107.9,40.6,107.9,40.6,107.9,40.7z"/>
</g>
</svg>
