<?xml version="1.0" encoding="utf-8"?>
<!-- Generator: Adobe Illustrator 21.0.2, SVG Export Plug-In . SVG Version: 6.00 Build 0)  -->
<svg version="1.1" id="Calque_1" xmlns="http://www.w3.org/2000/svg" xmlns:xlink="http://www.w3.org/1999/xlink" x="0px" y="0px"
	 viewBox="0 0 141.7 141.7" style="enable-background:new 0 0 141.7 141.7;" xml:space="preserve">
<style type="text/css">
	.st0{fill:#2C599A;}
</style>
<title>logos</title>
<path class="st0" d="M70.9,14.2H121c3.4-0.2,6.3,2.3,6.5,5.7c0,0.3,0,0.5,0,0.8c0,33.5,0,66.9,0,100.4c0.1,3.6-2.8,6.5-6.4,6.6
	c-0.1,0-0.1,0-0.2,0c-9.1-0.1-18.2,0-27.3,0c-1.1,0-1.1,0-1.1-1.1c0-13.8,0-27.7,0-41.5c0-1.1,0-1.1,1.2-1.1c4.2,0,8.4,0,12.6,0
	c0.7,0,1-0.1,1.1-0.9c0.6-5.2,1.3-10.4,2-15.5c0.1-0.8-0.1-1-0.9-1c-5,0-10,0-14.9,0c-0.8,0-1.1-0.2-1.1-1.1c0.1-3.8,0-7.7,0.1-11.5
	c0.1-3.5,1.9-5.6,5.4-6.2c1.1-0.2,2.2-0.3,3.3-0.3c2.6,0,5.3,0,7.9,0c0.8,0,1-0.3,1-1c0-4.5,0-9.1,0-13.6c0-0.7-0.2-1.1-1-1.1
	c-4.7-0.2-9.3-0.5-14-0.5c-4.4,0-8.7,1.4-12.3,4c-4.2,3.1-7,7.7-7.7,12.8c-0.3,2-0.5,3.9-0.5,5.9c-0.1,3.8,0,7.6,0,11.5
	c0,0.8-0.2,1.1-1,1.1c-4.2,0-8.5,0-12.7,0c-1.1,0-1.1,0-1.1,1.1c0,5.1,0,10.2,0,15.3c0,0.8,0.3,1.1,1.1,1.1c4.3,0,8.5,0,12.8,0
	c0.8,0,1,0.2,1,1c0,13.9,0,27.9,0,41.8c0,0.8-0.2,1-1,1c-17.8,0-35.6,0-53.3,0c-3.3,0.1-6.1-2.6-6.1-5.9c0-0.1,0-0.2,0-0.3
	c0-33.7,0-67.3,0-101c-0.1-3.3,2.6-6.1,6-6.1c0.1,0,0.1,0,0.2,0L70.9,14.2z"/>
</svg>
